<svg xmlns="http://www.w3.org/2000/svg" viewBox="0 0 1440 320"><path fill="#0099ff" fill-opacity="1" d="M0,320L26.7,288C53.3,256,107,192,160,170.7C213.3,149,267,171,320,192C373.3,213,427,235,480,245.3C533.3,256,587,256,640,229.3C693.3,203,747,149,800,122.7C853.3,96,907,96,960,101.3C1013.3,107,1067,117,1120,133.3C1173.3,149,1227,171,1280,181.3C1333.3,192,1387,192,1413,192L1440,192L1440,0L1413.3,0C1386.7,0,1333,0,1280,0C1226.7,0,1173,0,1120,0C1066.7,0,1013,0,960,0C906.7,0,853,0,800,0C746.7,0,693,0,640,0C586.7,0,533,0,480,0C426.7,0,373,0,320,0C266.7,0,213,0,160,0C106.7,0,53,0,27,0L0,0Z"></path></svg>